# xmcd
#
# Track frame offsets:
#	150
#	13406
#	27025
#	38156
#	49293
#	62049
#	73290
#	85860
#	98776
#	112758
#	133298
#	143258
#	157908
#	168559
#	181276
#	194093
#	208725
#	225900
#	237478
#
# Disc length: 3410 seconds
#
# Revision: 1
# Processed by: cddbd v1.5.2PL0 Copyright (c) Steve Scherf et al.
# Submitted via: audiograbber 1.83.01
#
DISCID=080d5013
DTITLE=Bo Diddley - Rock 'n' Roll Legends
DYEAR=2008
DGENRE=Rock and Roll
TTITLE0=Bo Diddley
TTITLE1=I'm A Man
TTITLE2=Diddley Daddy
TTITLE3=Bring It To Jerome
TTITLE4=Pretty Thing
TTITLE5=Who Do You Love
TTITLE6=Roadrunner
TTITLE7=Hey Good Looking
TTITLE8=Before You Accuse Me
TTITLE9=I Can Tell
TTITLE10=Hey! Bo Diddley
TTITLE11=You Can't Judge A Book By It's Cover
TTITLE12=Mona
TTITLE13=Pills
TTITLE14=The Story Of Bo Diddley
TTITLE15=Say Man
TTITLE16=Ooh Baby
TTITLE17=Little Girl
TTITLE18=She's Alright
EXTD=
EXTT0=
EXTT1=
EXTT2=
EXTT3=
EXTT4=
EXTT5=
EXTT6=
EXTT7=
EXTT8=
EXTT9=
EXTT10=
EXTT11=
EXTT12=
EXTT13=
EXTT14=
EXTT15=
EXTT16=
EXTT17=
EXTT18=
PLAYORDER=
